<?xml version="1.0" encoding="UTF-8"?>
<svg id="Layer_1" data-name="Layer 1" xmlns="http://www.w3.org/2000/svg" viewBox="0 0 800 800">
  <defs>
    <style>
      .cls-1 {
        fill: #f2f2f2;
        stroke-width: 0px;
      }
    </style>
  </defs>
  <path id="instagram" class="cls-1" d="m577.6,66.67H222.4c-85.65,0-155.73,70.08-155.73,155.73v355.21c0,85.65,70.08,155.73,155.73,155.73h355.21c85.65,0,155.73-70.08,155.73-155.73V222.4c0-85.65-70.08-155.73-155.73-155.73Zm-177.6,500c-91.67,0-166.67-75-166.67-166.67s75-166.67,166.67-166.67,166.67,75,166.67,166.67-75,166.67-166.67,166.67Zm200.44-317.73c-29.27,3.78-54.18-21.13-50.4-50.4,2.59-20.03,18.6-36.04,38.63-38.63,29.27-3.78,54.18,21.13,50.4,50.4-2.59,20.03-18.6,36.04-38.63,38.63Z"/>
</svg>