<?xml version="1.0" encoding="UTF-8"?>
<svg id="Layer_1" data-name="Layer 1" xmlns="http://www.w3.org/2000/svg" viewBox="0 0 800 800">
  <defs>
    <style>
      .cls-1 {
        fill: #f2f2f2;
        fill-rule: evenodd;
        stroke-width: 0px;
      }
    </style>
  </defs>
  <g id="Page-1">
    <g id="Dribbble-Light-Preview">
      <g id="icons">
        <path id="linkedin-_161_" data-name="linkedin-[#161]" class="cls-1" d="m733.61,734.19h-133.45v-233.5c0-64.05-28.26-99.79-78.93-99.79-55.15,0-87.87,37.24-87.87,99.79v233.5h-133.45v-433.7h133.45v48.77s41.87-73.47,136.21-73.47,164.04,57.58,164.04,176.76v281.63h0ZM147.86,231.13c-45,0-81.47-36.77-81.47-82.1s36.46-82.07,81.47-82.07,81.43,36.77,81.43,82.07c.03,45.33-36.46,82.1-81.43,82.1h0Zm-81.47,503.06h166.81v-433.7H66.39v433.7Z"/>
      </g>
    </g>
  </g>
</svg>